<svg width="30" height="28" viewBox="0 0 30 28" fill="none" xmlns="http://www.w3.org/2000/svg">
<path d="M20.049 0L24.8655 8.86778H30V12.0565H28.2495L27.114 26.538C27.0828 26.9364 26.9119 27.3078 26.6352 27.5786C26.3585 27.8494 25.9961 27.9998 25.62 28H4.38C4.00387 27.9998 3.64154 27.8494 3.36483 27.5786C3.08812 27.3078 2.91722 26.9364 2.886 26.538L1.749 12.0565H0V8.86778H5.133L9.951 0L12.549 1.59435L8.598 8.86778H21.4005L17.451 1.59435L20.049 0ZM25.239 12.0565H4.7595L5.76 24.8113H24.2385L25.239 12.0565ZM16.5 15.2452V21.6226H13.5V15.2452H16.5ZM10.5 15.2452V21.6226H7.5V15.2452H10.5ZM22.5 15.2452V21.6226H19.5V15.2452H22.5Z" fill="#E8E8E8" fill-opacity="0.7"/>
</svg>
