<svg width="23" height="28" viewBox="0 0 23 28" fill="none" xmlns="http://www.w3.org/2000/svg">
<path d="M21.2122 12.9457C23.5959 14.9706 23.5959 18.2563 21.2122 20.2825L12.579 27.6206C11.9838 28.1265 11.0162 28.1265 10.421 27.6206L1.78784 20.2825C-0.595946 18.2563 -0.595946 14.9706 1.78784 12.9444C4.17162 10.9183 8.03726 10.9183 10.421 12.9444L11.4985 13.8615L12.579 12.9444C14.9627 10.9183 18.8284 10.9183 21.2122 12.9444V12.9457ZM3.94576 14.7773C2.75539 15.7904 2.75539 17.4339 3.94576 18.447L11.5 24.868L19.0542 18.447C20.2446 17.4339 20.2446 15.7904 19.0542 14.7773C17.8624 13.7655 15.9288 13.7655 14.7354 14.7799L11.4969 17.5273L8.2616 14.7773C7.07123 13.7655 5.13765 13.7655 3.94576 14.7773ZM11.5 0C14.8727 0 17.6044 2.32193 17.6044 5.18867C17.6044 8.05541 14.8727 10.3773 11.5 10.3773C8.1273 10.3773 5.39556 8.05541 5.39556 5.18867C5.39556 2.32193 8.1273 0 11.5 0ZM11.5 2.59433C9.81365 2.59433 8.44778 3.7553 8.44778 5.18867C8.44778 6.62204 9.81365 7.783 11.5 7.783C13.1864 7.783 14.5522 6.62204 14.5522 5.18867C14.5522 3.7553 13.1864 2.59433 11.5 2.59433Z" fill="#E8E8E8" fill-opacity="0.7"/>
</svg>
